<svg id="Layer_1" data-name="Layer 1" xmlns="http://www.w3.org/2000/svg" viewBox="0 0 249.02 249.02"><defs><style>.cls-1{fill:#fff;}</style></defs><path class="cls-1" d="M160,466,394,232" transform="translate(-152.49 -224.49)"/><path class="cls-1" d="M165.3,471.3,317.67,318.94l71.68-71.68,9.95-10c6.84-6.83-3.77-17.44-10.6-10.6l-32.38,32.38L251.11,364.29,154.7,460.7c-6.84,6.83,3.77,17.44,10.6,10.6Z" transform="translate(-152.49 -224.49)"/><line class="cls-1" x1="7.51" y1="7.51" x2="241.51" y2="241.51"/><path class="cls-1" d="M154.7,237.3l79.12,79.13,126.05,126L388.7,471.3c6.83,6.84,17.44-3.77,10.6-10.6l-79.12-79.13-126-126L165.3,226.7c-6.83-6.84-17.44,3.77-10.6,10.6Z" transform="translate(-152.49 -224.49)"/></svg>