<svg id="Layer_1" data-name="Layer 1" xmlns="http://www.w3.org/2000/svg" viewBox="0 0 231.84 229.95"><defs><style>.cls-1{fill:#1d1d1b;}</style></defs><path class="cls-1" d="M344,497.5h30l-7.5-7.5v65a7.61,7.61,0,0,0,7.5,7.5h61a7.61,7.61,0,0,0,7.5-7.5V448.5L435,456h17.5c6.49,0,9.9-8.21,5.3-12.8l-95-95L349.3,334.7a7.6,7.6,0,0,0-10.6,0l-95,95L230.2,443.2c-4.6,4.59-1.2,12.8,5.3,12.8H253l-7.5-7.5V555a7.61,7.61,0,0,0,7.5,7.5h61a7.61,7.61,0,0,0,7.5-7.5V490l-7.5,7.5h30c9.65,0,9.67-15,0-15H314a7.61,7.61,0,0,0-7.5,7.5v65l7.5-7.5H253l7.5,7.5V448.5A7.61,7.61,0,0,0,253,441H235.5l5.3,12.8,95-95L349.3,345.3H338.7q47.48,47.49,95,95L447.2,453.8l5.3-12.8H435a7.61,7.61,0,0,0-7.5,7.5V555l7.5-7.5H374l7.5,7.5V490a7.61,7.61,0,0,0-7.5-7.5H344C334.35,482.5,334.33,497.5,344,497.5Z" transform="translate(-228.08 -332.55)"/></svg>