<svg id="Layer_1" data-name="Layer 1" xmlns="http://www.w3.org/2000/svg" viewBox="0 0 364.64 332.72"><defs><style>.cls-1{fill:#1d1d1b;}</style></defs><path class="cls-1" d="M310,452.29h47.16l-22.5-22.5V514a22.83,22.83,0,0,0,22.5,22.5H433a22.83,22.83,0,0,0,22.5-22.5V364.11L433,386.61H470a22.57,22.57,0,0,0,20.56-13.84c3.29-7.78,2.13-18.72-4.65-24.57l-54-46.63-86.14-74.35-19.85-17.13c-9.72-8.39-22-8.45-31.82,0l-54,46.62-86.14,74.36L134.09,348.2c-6.76,5.83-7.91,16.86-4.65,24.57A22.54,22.54,0,0,0,150,386.61h37.05l-22.5-22.5V514a22.83,22.83,0,0,0,22.5,22.5h75.79a22.82,22.82,0,0,0,22.5-22.5V429.79l-22.5,22.5H310c11.77,0,23-10.35,22.5-22.5s-9.89-22.5-22.5-22.5H262.84a22.83,22.83,0,0,0-22.5,22.5V514l22.5-22.5H187.05l22.5,22.5V364.11a22.82,22.82,0,0,0-22.5-22.5H150L165.91,380l54-46.63L306.06,259l19.85-17.13H294.09l54,46.62,86.14,74.36L454.09,380,470,341.61H433a22.82,22.82,0,0,0-22.5,22.5V514L433,491.5H357.16l22.5,22.5V429.79a22.83,22.83,0,0,0-22.5-22.5H310c-11.77,0-23,10.35-22.5,22.5S297.39,452.29,310,452.29Z" transform="translate(-127.69 -203.78)"/></svg>