<svg id="Layer_1" data-name="Layer 1" xmlns="http://www.w3.org/2000/svg" viewBox="0 0 296.68 346.28"><defs><style>.cls-1,.cls-2{fill:#fff;}.cls-1{stroke:#1d1d1b;stroke-miterlimit:10;stroke-width:40px;}.cls-3{fill:#1d1d1b;}</style></defs><circle class="cls-1" cx="148.34" cy="97.5" r="77.5"/><path class="cls-2" d="M131.75,555.89s117.5-134.5,252,0" transform="translate(-109.41 -232)"/><path class="cls-3" d="M147.66,571.8a135.58,135.58,0,0,1,12.11-11.86q3.16-2.84,6.47-5.53c1.27-1,2.56-2,3.85-3.08,2.48-2-4.81,3.62-2.21,1.7.83-.6,1.64-1.23,2.46-1.83a207.91,207.91,0,0,1,19.19-12.61c3.81-2.21,7.7-4.3,11.65-6.24,1.91-.93,3.83-1.84,5.77-2.71.91-.41,1.83-.79,2.74-1.2,2.42-1.09-5.07,2.06-2.59,1.1.63-.24,1.26-.51,1.88-.76a160.09,160.09,0,0,1,27.85-8.23c2.36-.46,4.73-.79,7.09-1.22,1.44-.26-5.89.66-1.54.22,1.5-.15,3-.32,4.51-.45a141.62,141.62,0,0,1,15.69-.43c2.6.07,5.19.22,7.79.44,1.42.12,2.83.28,4.25.42,3.66.35-5.4-.88-.45,0a157.67,157.67,0,0,1,17.62,3.88q4.89,1.41,9.68,3.13c1.75.63,3.48,1.32,5.22,2,3.49,1.33-4.15-1.85.56.25a180,180,0,0,1,20.78,11q5.22,3.19,10.24,6.71c1.85,1.3,3.69,2.62,5.5,4a21.14,21.14,0,0,1,2.07,1.56c-1.27-1.23-2.37-1.88-.4-.27a300.67,300.67,0,0,1,22.4,20.12c8.36,8.3,23.58,9,31.82,0s8.92-23,0-31.82c-41.91-41.64-98.17-72.81-159-65.22-40.7,5.08-77.14,23.3-108.33,49.53A150.41,150.41,0,0,0,115.84,540c-7.75,8.85-9.36,23.23,0,31.82,8.49,7.79,23.54,9.45,31.82,0Z" transform="translate(-109.41 -232)"/></svg>